<svg width="92" height="29" viewBox="0 0 92 29" fill="none" xmlns="http://www.w3.org/2000/svg">
<g filter="url(#filter0_d_7_63)">
<path d="M4.41406 17L6.82812 5.57812H13.2188L12.7969 7.5625H8.79688L8.27344 10.0703H12L11.5703 12.0547H7.84375L7.21875 15H11.2188L10.7969 17H4.41406ZM13.0859 17L15.5 5.57812H18.6562L19.1641 14.1172H19.2344L23.5234 5.57812H26.8281L24.4141 17H22.2266L23.3594 11.5938C23.4375 11.2344 23.526 10.849 23.625 10.4375C23.724 10.026 23.8255 9.61979 23.9297 9.21875C24.0339 8.81771 24.1276 8.46094 24.2109 8.14844H24.1406L19.6953 17H17.5L17.0234 8.14844H16.9609C16.9349 8.3776 16.8906 8.6875 16.8281 9.07812C16.7656 9.46875 16.6927 9.89323 16.6094 10.3516C16.5312 10.8047 16.4453 11.25 16.3516 11.6875L15.2344 17H13.0859ZM27.1641 17L29.5781 5.57812H31.9688L30.8281 10.9219L35.0547 5.57812H37.7422L33.1953 11.2266L35.5 17H32.8594L30.7344 11.3828L29.5469 17H27.1641Z" fill="#E6E1E3"/>
</g>
<g filter="url(#filter1_d_7_63)">
<rect x="41" y="1.5" width="47" height="19" rx="3" fill="#71DA41" shape-rendering="crispEdges"/>
<path d="M51.2529 16.5L53.5088 5.86328H55.5664L53.3105 16.5H51.2529ZM57.6516 16.6367C57.2825 16.6367 56.9339 16.5456 56.6057 16.3633C56.2776 16.181 56.0087 15.887 55.7991 15.4814C55.594 15.0758 55.4915 14.5381 55.4915 13.8682C55.4915 13.3669 55.5439 12.8701 55.6487 12.3779C55.7581 11.8857 55.913 11.4209 56.1136 10.9834C56.3186 10.5413 56.5647 10.1517 56.8518 9.81445C57.1435 9.47266 57.4716 9.20378 57.8362 9.00781C58.2054 8.81185 58.6041 8.71387 59.0325 8.71387C59.3561 8.71387 59.6386 8.76172 59.8802 8.85742C60.1217 8.94857 60.329 9.07845 60.5022 9.24707C60.6754 9.41569 60.8167 9.61165 60.9261 9.83496H60.9807L61.3704 8.85742H62.9563L61.3294 16.5H59.7913L59.887 15.5088H59.8323C59.65 15.7321 59.4518 15.9281 59.2376 16.0967C59.0234 16.2653 58.7864 16.3975 58.5266 16.4932C58.2669 16.5889 57.9752 16.6367 57.6516 16.6367ZM58.4583 14.9756C58.7408 14.9756 59.0029 14.8662 59.2444 14.6475C59.486 14.4242 59.6933 14.1348 59.8665 13.7793C60.0397 13.4238 60.1627 13.0479 60.2356 12.6514C60.2721 12.4691 60.2971 12.2868 60.3108 12.1045C60.329 11.9176 60.3382 11.7171 60.3382 11.5029C60.3382 11.1794 60.2516 10.9128 60.0784 10.7031C59.9098 10.4889 59.6774 10.3818 59.3811 10.3818C59.1806 10.3818 58.9892 10.4479 58.8069 10.5801C58.6292 10.7077 58.4651 10.8854 58.3147 11.1133C58.1643 11.3366 58.0322 11.5941 57.9182 11.8857C57.8089 12.1729 57.7246 12.4782 57.6653 12.8018C57.6061 13.1253 57.5764 13.4489 57.5764 13.7725C57.5764 14.1689 57.6539 14.4697 57.8089 14.6748C57.9638 14.8753 58.1803 14.9756 58.4583 14.9756ZM67.0923 16.6367C66.7733 16.6367 66.4931 16.5911 66.2515 16.5C66.01 16.4043 65.8026 16.2744 65.6295 16.1104C65.4608 15.9417 65.3196 15.7458 65.2056 15.5225H65.1509L64.7545 16.5H63.1754L65.4312 5.86328H67.4888L67.065 7.83203C67.024 8.01888 66.9716 8.23763 66.9078 8.48828C66.844 8.73438 66.7756 8.98275 66.7027 9.2334C66.6298 9.47949 66.5591 9.69368 66.4908 9.87598H66.5455C66.7095 9.6709 66.8804 9.47949 67.0582 9.30176C67.2359 9.12402 67.4387 8.98275 67.6666 8.87793C67.899 8.76855 68.1701 8.71387 68.48 8.71387C68.8492 8.71387 69.1978 8.80501 69.5259 8.9873C69.8541 9.1696 70.1207 9.46354 70.3257 9.86914C70.5308 10.2747 70.6334 10.8148 70.6334 11.4893C70.6334 11.986 70.5787 12.4827 70.4693 12.9795C70.3645 13.4717 70.2095 13.9365 70.0045 14.374C69.8039 14.8115 69.5578 15.2012 69.2662 15.543C68.9791 15.8848 68.6532 16.1536 68.2886 16.3496C67.924 16.541 67.5253 16.6367 67.0923 16.6367ZM66.7437 14.9756C66.9442 14.9756 67.1356 14.9118 67.3179 14.7842C67.5002 14.652 67.6666 14.4743 67.817 14.251C67.9673 14.0231 68.0972 13.7656 68.2066 13.4785C68.316 13.1868 68.4003 12.8792 68.4595 12.5557C68.5188 12.2321 68.5484 11.9085 68.5484 11.585C68.5484 11.1839 68.4732 10.8831 68.3228 10.6826C68.177 10.4821 67.9537 10.3818 67.6529 10.3818C67.4341 10.3818 67.2336 10.4388 67.0513 10.5527C66.8736 10.6667 66.7164 10.8216 66.5796 11.0176C66.4429 11.209 66.3244 11.4255 66.2242 11.667C66.1239 11.9085 66.0419 12.1569 65.9781 12.4121C65.9143 12.6628 65.8664 12.9066 65.8345 13.1436C65.8072 13.3805 65.7935 13.5902 65.7935 13.7725C65.7935 14.1325 65.8778 14.4242 66.0464 14.6475C66.2196 14.8662 66.452 14.9756 66.7437 14.9756ZM73.4295 16.6367C72.9419 16.6367 72.5158 16.6025 72.1512 16.5342C71.7912 16.4658 71.4539 16.3519 71.1395 16.1924V14.4971C71.4813 14.693 71.8322 14.8457 72.1922 14.9551C72.5568 15.0599 72.9328 15.1123 73.3202 15.1123C73.5343 15.1123 73.7349 15.0827 73.9217 15.0234C74.1131 14.9642 74.2681 14.873 74.3866 14.75C74.5051 14.627 74.5643 14.472 74.5643 14.2852C74.5643 14.1576 74.5347 14.0436 74.4754 13.9434C74.4162 13.8431 74.3023 13.7337 74.1336 13.6152C73.9696 13.4922 73.7303 13.3441 73.4159 13.1709C73.1014 12.9932 72.8325 12.8109 72.6092 12.624C72.3905 12.4372 72.2218 12.2253 72.1034 11.9883C71.9894 11.7513 71.9325 11.4733 71.9325 11.1543C71.9325 10.6257 72.0487 10.1813 72.2811 9.82129C72.5135 9.45671 72.8462 9.18099 73.2791 8.99414C73.7166 8.80729 74.2385 8.71387 74.8446 8.71387C75.2866 8.71387 75.7127 8.764 76.1229 8.86426C76.533 8.96452 76.9341 9.13086 77.326 9.36328L76.6493 10.833C76.3804 10.6689 76.0933 10.5322 75.7879 10.4229C75.4871 10.3135 75.1864 10.2588 74.8856 10.2588C74.6623 10.2588 74.4618 10.3112 74.284 10.416C74.1063 10.5208 74.0174 10.6826 74.0174 10.9014C74.0174 11.0199 74.0493 11.1292 74.1131 11.2295C74.1769 11.3252 74.284 11.4232 74.4344 11.5234C74.5894 11.6237 74.7967 11.7422 75.0565 11.8789C75.3664 12.0384 75.6398 12.2161 75.8768 12.4121C76.1183 12.6035 76.3075 12.8268 76.4442 13.082C76.5809 13.3327 76.6493 13.6312 76.6493 13.9775C76.6493 14.5609 76.5171 15.0508 76.2528 15.4473C75.9885 15.8392 75.6148 16.1354 75.1317 16.3359C74.6532 16.5365 74.0858 16.6367 73.4295 16.6367Z" fill="#203D12"/>
</g>
<defs>
<filter id="filter0_d_7_63" x="0.414062" y="5.57812" width="41.3281" height="19.4219" filterUnits="userSpaceOnUse" color-interpolation-filters="sRGB">
<feFlood flood-opacity="0" result="BackgroundImageFix"/>
<feColorMatrix in="SourceAlpha" type="matrix" values="0 0 0 0 0 0 0 0 0 0 0 0 0 0 0 0 0 0 127 0" result="hardAlpha"/>
<feOffset dy="4"/>
<feGaussianBlur stdDeviation="2"/>
<feComposite in2="hardAlpha" operator="out"/>
<feColorMatrix type="matrix" values="0 0 0 0 0 0 0 0 0 0 0 0 0 0 0 0 0 0 0.25 0"/>
<feBlend mode="normal" in2="BackgroundImageFix" result="effect1_dropShadow_7_63"/>
<feBlend mode="normal" in="SourceGraphic" in2="effect1_dropShadow_7_63" result="shape"/>
</filter>
<filter id="filter1_d_7_63" x="37" y="1.5" width="55" height="27" filterUnits="userSpaceOnUse" color-interpolation-filters="sRGB">
<feFlood flood-opacity="0" result="BackgroundImageFix"/>
<feColorMatrix in="SourceAlpha" type="matrix" values="0 0 0 0 0 0 0 0 0 0 0 0 0 0 0 0 0 0 127 0" result="hardAlpha"/>
<feOffset dy="4"/>
<feGaussianBlur stdDeviation="2"/>
<feComposite in2="hardAlpha" operator="out"/>
<feColorMatrix type="matrix" values="0 0 0 0 0 0 0 0 0 0 0 0 0 0 0 0 0 0 0.25 0"/>
<feBlend mode="normal" in2="BackgroundImageFix" result="effect1_dropShadow_7_63"/>
<feBlend mode="normal" in="SourceGraphic" in2="effect1_dropShadow_7_63" result="shape"/>
</filter>
</defs>
</svg>
